<svg xmlns="http://www.w3.org/2000/svg" viewBox="0 0 1536 1024" role="img" width="1536" height="1024">
  <title>Russia's Annexation of Crimea – Retro Pixel Art Banner</title>
  <defs>
    <radialGradient id="crt" cx="50%" cy="50%" r="70%">
      <stop offset="0%" stop-color="#1a0a2e" />
      <stop offset="100%" stop-color="#050510" />
    </radialGradient>
    <filter id="glow">
      <feGaussianBlur stdDeviation="3" result="blur" />
      <feMerge><feMergeNode in="blur" /><feMergeNode in="SourceGraphic" /></feMerge>
    </filter>
    
    <pattern id="scanlines" x="0" y="0" width="2" height="4" patternUnits="userSpaceOnUse">
      <rect x="0" y="0" width="2" height="2" fill="rgba(0,0,0,0.18)" />
    </pattern>
  </defs>

  
  <rect width="1536" height="1024" fill="url(#crt)" />

  
  
  <rect x="0" y="600" width="1536" height="424" fill="#0a1a4a" />
  
  <rect x="0" y="600" width="1536" height="8" fill="#0d2060" />
  <rect x="0" y="624" width="1536" height="8" fill="#0d2060" />
  <rect x="0" y="648" width="1536" height="8" fill="#0d2060" />
  <rect x="0" y="672" width="1536" height="8" fill="#0d2060" />
  <rect x="0" y="696" width="1536" height="8" fill="#0d2060" />
  <rect x="0" y="720" width="1536" height="8" fill="#0d2060" />
  <rect x="0" y="744" width="1536" height="8" fill="#0d2060" />
  <rect x="0" y="768" width="1536" height="8" fill="#0d2060" />
  <rect x="0" y="792" width="1536" height="8" fill="#0d2060" />
  <rect x="0" y="816" width="1536" height="8" fill="#0d2060" />
  
  <rect x="100" y="628" width="8" height="8" fill="#4af" />
  <rect x="300" y="652" width="8" height="8" fill="#4af" />
  <rect x="500" y="636" width="8" height="8" fill="#4af" />
  <rect x="700" y="660" width="8" height="8" fill="#4af" />
  <rect x="900" y="640" width="8" height="8" fill="#4af" />
  <rect x="1100" y="656" width="8" height="8" fill="#4af" />
  <rect x="1300" y="632" width="8" height="8" fill="#4af" />
  <rect x="200" y="700" width="8" height="8" fill="#4af" />
  <rect x="600" y="720" width="8" height="8" fill="#4af" />
  <rect x="1000" y="710" width="8" height="8" fill="#4af" />
  <rect x="1400" y="700" width="8" height="8" fill="#4af" />

  
  
  
  <g fill="#8B7355" filter="url(#glow)">
    
    <rect x="700" y="440" width="16" height="16" fill="#9aaa55" />
    <rect x="716" y="440" width="16" height="16" fill="#9aaa55" />
    <rect x="732" y="440" width="16" height="16" fill="#9aaa55" />
    <rect x="748" y="440" width="16" height="16" fill="#9aaa55" />
    <rect x="764" y="440" width="16" height="16" fill="#9aaa55" />
    <rect x="780" y="440" width="16" height="16" fill="#9aaa55" />
    <rect x="796" y="440" width="16" height="16" fill="#9aaa55" />
    <rect x="812" y="440" width="16" height="16" fill="#9aaa55" />
    <rect x="828" y="440" width="16" height="16" fill="#9aaa55" />
    <rect x="844" y="440" width="16" height="16" fill="#9aaa55" />
    <rect x="860" y="440" width="16" height="16" fill="#9aaa55" />
    <rect x="876" y="440" width="16" height="16" fill="#9aaa55" />
    <rect x="892" y="440" width="16" height="16" fill="#9aaa55" />
    <rect x="908" y="440" width="16" height="16" fill="#9aaa55" />

    
    <rect x="684" y="456" width="16" height="16" fill="#9aaa55" />
    <rect x="700" y="456" width="16" height="16" fill="#aabb66" />
    <rect x="716" y="456" width="16" height="16" fill="#aabb66" />
    <rect x="732" y="456" width="16" height="16" fill="#aabb66" />
    <rect x="748" y="456" width="16" height="16" fill="#aabb66" />
    <rect x="764" y="456" width="16" height="16" fill="#aabb66" />
    <rect x="780" y="456" width="16" height="16" fill="#aabb66" />
    <rect x="796" y="456" width="16" height="16" fill="#aabb66" />
    <rect x="812" y="456" width="16" height="16" fill="#aabb66" />
    <rect x="828" y="456" width="16" height="16" fill="#aabb66" />
    <rect x="844" y="456" width="16" height="16" fill="#aabb66" />
    <rect x="860" y="456" width="16" height="16" fill="#aabb66" />
    <rect x="876" y="456" width="16" height="16" fill="#aabb66" />
    <rect x="892" y="456" width="16" height="16" fill="#aabb66" />
    <rect x="908" y="456" width="16" height="16" fill="#aabb66" />
    <rect x="924" y="456" width="16" height="16" fill="#9aaa55" />

    
    <rect x="668" y="472" width="16" height="16" fill="#9aaa55" />
    <rect x="684" y="472" width="16" height="16" fill="#aabb66" />
    <rect x="700" y="472" width="16" height="16" fill="#bbcc77" />
    <rect x="716" y="472" width="16" height="16" fill="#bbcc77" />
    <rect x="732" y="472" width="16" height="16" fill="#bbcc77" />
    <rect x="748" y="472" width="16" height="16" fill="#bbcc77" />
    <rect x="764" y="472" width="16" height="16" fill="#bbcc77" />
    <rect x="780" y="472" width="16" height="16" fill="#bbcc77" />
    <rect x="796" y="472" width="16" height="16" fill="#bbcc77" />
    <rect x="812" y="472" width="16" height="16" fill="#bbcc77" />
    <rect x="828" y="472" width="16" height="16" fill="#bbcc77" />
    <rect x="844" y="472" width="16" height="16" fill="#bbcc77" />
    <rect x="860" y="472" width="16" height="16" fill="#bbcc77" />
    <rect x="876" y="472" width="16" height="16" fill="#bbcc77" />
    <rect x="892" y="472" width="16" height="16" fill="#bbcc77" />
    <rect x="908" y="472" width="16" height="16" fill="#bbcc77" />
    <rect x="924" y="472" width="16" height="16" fill="#aabb66" />
    <rect x="940" y="472" width="16" height="16" fill="#9aaa55" />

    
    <rect x="652" y="488" width="16" height="16" fill="#9aaa55" />
    <rect x="668" y="488" width="16" height="16" fill="#aabb66" />
    <rect x="684" y="488" width="16" height="16" fill="#bbcc77" />
    <rect x="700" y="488" width="16" height="16" fill="#bbcc77" />
    <rect x="716" y="488" width="16" height="16" fill="#bbcc77" />
    <rect x="732" y="488" width="16" height="16" fill="#bbcc77" />
    <rect x="748" y="488" width="16" height="16" fill="#bbcc77" />
    <rect x="764" y="488" width="16" height="16" fill="#bbcc77" />
    <rect x="780" y="488" width="16" height="16" fill="#bbcc77" />
    <rect x="796" y="488" width="16" height="16" fill="#bbcc77" />
    <rect x="812" y="488" width="16" height="16" fill="#bbcc77" />
    <rect x="828" y="488" width="16" height="16" fill="#bbcc77" />
    <rect x="844" y="488" width="16" height="16" fill="#bbcc77" />
    <rect x="860" y="488" width="16" height="16" fill="#bbcc77" />
    <rect x="876" y="488" width="16" height="16" fill="#bbcc77" />
    <rect x="892" y="488" width="16" height="16" fill="#bbcc77" />
    <rect x="908" y="488" width="16" height="16" fill="#bbcc77" />
    <rect x="924" y="488" width="16" height="16" fill="#aabb66" />
    <rect x="940" y="488" width="16" height="16" fill="#9aaa55" />

    
    <rect x="652" y="504" width="16" height="16" fill="#9aaa55" />
    <rect x="668" y="504" width="16" height="16" fill="#bbcc77" />
    <rect x="684" y="504" width="16" height="16" fill="#bbcc77" />
    <rect x="700" y="504" width="16" height="16" fill="#bbcc77" />
    <rect x="716" y="504" width="16" height="16" fill="#bbcc77" />
    <rect x="732" y="504" width="16" height="16" fill="#bbcc77" />
    <rect x="748" y="504" width="16" height="16" fill="#bbcc77" />
    <rect x="764" y="504" width="16" height="16" fill="#bbcc77" />
    <rect x="780" y="504" width="16" height="16" fill="#bbcc77" />
    <rect x="796" y="504" width="16" height="16" fill="#bbcc77" />
    <rect x="812" y="504" width="16" height="16" fill="#bbcc77" />
    <rect x="828" y="504" width="16" height="16" fill="#bbcc77" />
    <rect x="844" y="504" width="16" height="16" fill="#bbcc77" />
    <rect x="860" y="504" width="16" height="16" fill="#bbcc77" />
    <rect x="876" y="504" width="16" height="16" fill="#bbcc77" />
    <rect x="892" y="504" width="16" height="16" fill="#bbcc77" />
    <rect x="908" y="504" width="16" height="16" fill="#bbcc77" />
    <rect x="924" y="504" width="16" height="16" fill="#bbcc77" />
    <rect x="940" y="504" width="16" height="16" fill="#aabb66" />
    <rect x="956" y="504" width="16" height="16" fill="#9aaa55" />

    
    <rect x="652" y="520" width="16" height="16" fill="#9aaa55" />
    <rect x="668" y="520" width="16" height="16" fill="#bbcc77" />
    <rect x="684" y="520" width="16" height="16" fill="#bbcc77" />
    <rect x="700" y="520" width="16" height="16" fill="#bbcc77" />
    <rect x="716" y="520" width="16" height="16" fill="#bbcc77" />
    <rect x="732" y="520" width="16" height="16" fill="#bbcc77" />
    <rect x="748" y="520" width="16" height="16" fill="#bbcc77" />
    <rect x="764" y="520" width="16" height="16" fill="#bbcc77" />
    <rect x="780" y="520" width="16" height="16" fill="#bbcc77" />
    <rect x="796" y="520" width="16" height="16" fill="#bbcc77" />
    <rect x="812" y="520" width="16" height="16" fill="#bbcc77" />
    <rect x="828" y="520" width="16" height="16" fill="#bbcc77" />
    <rect x="844" y="520" width="16" height="16" fill="#bbcc77" />
    <rect x="860" y="520" width="16" height="16" fill="#bbcc77" />
    <rect x="876" y="520" width="16" height="16" fill="#bbcc77" />
    <rect x="892" y="520" width="16" height="16" fill="#bbcc77" />
    <rect x="908" y="520" width="16" height="16" fill="#aabb66" />
    <rect x="924" y="520" width="16" height="16" fill="#aabb66" />
    <rect x="940" y="520" width="16" height="16" fill="#aabb66" />
    <rect x="956" y="520" width="16" height="16" fill="#9aaa55" />

    
    <rect x="668" y="536" width="16" height="16" fill="#9aaa55" />
    <rect x="684" y="536" width="16" height="16" fill="#aabb66" />
    <rect x="700" y="536" width="16" height="16" fill="#bbcc77" />
    <rect x="716" y="536" width="16" height="16" fill="#bbcc77" />
    <rect x="732" y="536" width="16" height="16" fill="#bbcc77" />
    <rect x="748" y="536" width="16" height="16" fill="#bbcc77" />
    <rect x="764" y="536" width="16" height="16" fill="#bbcc77" />
    <rect x="780" y="536" width="16" height="16" fill="#bbcc77" />
    <rect x="796" y="536" width="16" height="16" fill="#bbcc77" />
    <rect x="812" y="536" width="16" height="16" fill="#bbcc77" />
    <rect x="828" y="536" width="16" height="16" fill="#bbcc77" />
    <rect x="844" y="536" width="16" height="16" fill="#bbcc77" />
    <rect x="860" y="536" width="16" height="16" fill="#bbcc77" />
    <rect x="876" y="536" width="16" height="16" fill="#aabb66" />
    <rect x="892" y="536" width="16" height="16" fill="#aabb66" />
    <rect x="908" y="536" width="16" height="16" fill="#9aaa55" />

    
    <rect x="684" y="552" width="16" height="16" fill="#9aaa55" />
    <rect x="700" y="552" width="16" height="16" fill="#aabb66" />
    <rect x="716" y="552" width="16" height="16" fill="#bbcc77" />
    <rect x="732" y="552" width="16" height="16" fill="#bbcc77" />
    <rect x="748" y="552" width="16" height="16" fill="#bbcc77" />
    <rect x="764" y="552" width="16" height="16" fill="#bbcc77" />
    <rect x="780" y="552" width="16" height="16" fill="#bbcc77" />
    <rect x="796" y="552" width="16" height="16" fill="#bbcc77" />
    <rect x="812" y="552" width="16" height="16" fill="#bbcc77" />
    <rect x="828" y="552" width="16" height="16" fill="#aabb66" />
    <rect x="844" y="552" width="16" height="16" fill="#aabb66" />
    <rect x="860" y="552" width="16" height="16" fill="#9aaa55" />

    
    <rect x="716" y="568" width="16" height="16" fill="#9aaa55" />
    <rect x="732" y="568" width="16" height="16" fill="#aabb66" />
    <rect x="748" y="568" width="16" height="16" fill="#bbcc77" />
    <rect x="764" y="568" width="16" height="16" fill="#aabb66" />
    <rect x="780" y="568" width="16" height="16" fill="#aabb66" />
    <rect x="796" y="568" width="16" height="16" fill="#9aaa55" />

    
    <rect x="940" y="504" width="16" height="16" fill="#9aaa55" />
    <rect x="956" y="488" width="16" height="16" fill="#9aaa55" />
    <rect x="972" y="488" width="16" height="16" fill="#9aaa55" />
    <rect x="956" y="504" width="16" height="16" fill="#aabb66" />
    <rect x="972" y="504" width="16" height="16" fill="#9aaa55" />
  </g>

  
  
  <rect x="800" y="400" width="6" height="56" fill="#888" />
  
  <rect x="806" y="400" width="64" height="19" fill="#ffffff" />
  
  <rect x="806" y="419" width="64" height="19" fill="#003580" />
  
  <rect x="806" y="438" width="64" height="18" fill="#CC0000" />
  
  <rect x="806" y="400" width="64" height="56" fill="none" stroke="#555" stroke-width="2" />

  
  
  <g fill="#cc2200">
    
    <rect x="120" y="460" width="24" height="24" fill="#f0c080" />
    
    <rect x="112" y="452" width="40" height="16" fill="#556655" />
    <rect x="116" y="448" width="32" height="8" fill="#556655" />
    
    <rect x="112" y="484" width="48" height="48" fill="#556655" />
    
    <rect x="88" y="484" width="24" height="16" fill="#556655" />
    <rect x="160" y="484" width="24" height="16" fill="#556655" />
    
    <rect x="64" y="488" width="32" height="8" fill="#333" />
    <rect x="88" y="484" width="8" height="8" fill="#333" />
    
    <rect x="112" y="532" width="20" height="32" fill="#445544" />
    <rect x="140" y="532" width="20" height="32" fill="#445544" />
    
    <rect x="108" y="564" width="28" height="12" fill="#222" />
    <rect x="136" y="564" width="28" height="12" fill="#222" />
  </g>

  
  <g>
    <rect x="200" y="460" width="24" height="24" fill="#f0c080" />
    <rect x="192" y="452" width="40" height="16" fill="#556655" />
    <rect x="196" y="448" width="32" height="8" fill="#556655" />
    <rect x="192" y="484" width="48" height="48" fill="#556655" />
    <rect x="168" y="484" width="24" height="16" fill="#556655" />
    <rect x="240" y="484" width="24" height="16" fill="#556655" />
    <rect x="244" y="488" width="32" height="8" fill="#333" />
    <rect x="240" y="484" width="8" height="8" fill="#333" />
    <rect x="192" y="532" width="20" height="32" fill="#445544" />
    <rect x="220" y="532" width="20" height="32" fill="#445544" />
    <rect x="188" y="564" width="28" height="12" fill="#222" />
    <rect x="216" y="564" width="28" height="12" fill="#222" />
  </g>

  
  <g>
    <rect x="300" y="460" width="24" height="24" fill="#f0c080" />
    <rect x="292" y="452" width="40" height="16" fill="#556655" />
    <rect x="296" y="448" width="32" height="8" fill="#556655" />
    <rect x="292" y="484" width="48" height="48" fill="#556655" />
    <rect x="268" y="484" width="24" height="16" fill="#556655" />
    <rect x="340" y="484" width="24" height="16" fill="#556655" />
    <rect x="344" y="488" width="32" height="8" fill="#333" />
    <rect x="292" y="532" width="20" height="32" fill="#445544" />
    <rect x="320" y="532" width="20" height="32" fill="#445544" />
    <rect x="288" y="564" width="28" height="12" fill="#222" />
    <rect x="316" y="564" width="28" height="12" fill="#222" />
  </g>

  
  <g>
    
    <rect x="1100" y="500" width="240" height="80" fill="#556644" />
    
    <rect x="1160" y="456" width="120" height="56" fill="#667755" />
    
    <rect x="1280" y="468" width="100" height="16" fill="#445533" />
    
    <rect x="1088" y="572" width="264" height="28" fill="#333" />
    
    <rect x="1096" y="572" width="16" height="28" fill="#444" />
    <rect x="1120" y="572" width="16" height="28" fill="#444" />
    <rect x="1144" y="572" width="16" height="28" fill="#444" />
    <rect x="1168" y="572" width="16" height="28" fill="#444" />
    <rect x="1192" y="572" width="16" height="28" fill="#444" />
    <rect x="1216" y="572" width="16" height="28" fill="#444" />
    <rect x="1240" y="572" width="16" height="28" fill="#444" />
    <rect x="1264" y="572" width="16" height="28" fill="#444" />
    <rect x="1288" y="572" width="16" height="28" fill="#444" />
    <rect x="1312" y="572" width="16" height="28" fill="#444" />
    <rect x="1336" y="572" width="16" height="28" fill="#444" />
    
    <rect x="1124" y="520" width="12" height="12" fill="#cc0000" />
    <rect x="1112" y="528" width="12" height="4" fill="#cc0000" />
    <rect x="1136" y="528" width="12" height="4" fill="#cc0000" />
    <rect x="1116" y="532" width="8" height="8" fill="#cc0000" />
    <rect x="1136" y="532" width="8" height="8" fill="#cc0000" />
  </g>

  
  <g filter="url(#glow)">
    <rect x="870" y="390" width="8" height="8" fill="#ff8800" />
    <rect x="862" y="382" width="8" height="8" fill="#ffcc00" />
    <rect x="878" y="382" width="8" height="8" fill="#ffcc00" />
    <rect x="854" y="374" width="8" height="8" fill="#ff8800" />
    <rect x="870" y="374" width="8" height="8" fill="#ffffff" />
    <rect x="886" y="374" width="8" height="8" fill="#ff8800" />
    <rect x="862" y="366" width="8" height="8" fill="#ffcc00" />
    <rect x="878" y="366" width="8" height="8" fill="#ffcc00" />
    <rect x="870" y="358" width="8" height="8" fill="#ff8800" />
  </g>

  
  <g fill="#ffffff" opacity="0.4">
    <rect x="50" y="50" width="4" height="4" />
    <rect x="150" y="80" width="4" height="4" />
    <rect x="400" y="30" width="4" height="4" />
    <rect x="600" y="70" width="4" height="4" />
    <rect x="1000" y="40" width="4" height="4" />
    <rect x="1200" y="60" width="4" height="4" />
    <rect x="1450" y="30" width="4" height="4" />
    <rect x="80" y="200" width="4" height="4" />
    <rect x="500" y="250" width="4" height="4" />
    <rect x="1300" y="200" width="4" height="4" />
    <rect x="1480" y="400" width="4" height="4" />
  </g>

  
  <rect x="0" y="0" width="1536" height="16" fill="#005BBB" />
  <rect x="0" y="16" width="1536" height="16" fill="#FFD500" />

  
  <rect x="0" y="992" width="1536" height="16" fill="#CC0000" />
  <rect x="0" y="976" width="1536" height="16" fill="#003580" />
  <rect x="0" y="960" width="1536" height="16" fill="#ffffff" opacity="0.8" />

  
  

  
  <text x="90" y="200" font-family="monospace" font-size="88" font-weight="bold" fill="#FFD500" filter="url(#glow)" letter-spacing="4">
    RUSSIA'S
  </text>
  <text x="90" y="300" font-family="monospace" font-size="88" font-weight="bold" fill="#FF4444" filter="url(#glow)" letter-spacing="4">
    ANNEXATION
  </text>
  <text x="90" y="400" font-family="monospace" font-size="88" font-weight="bold" fill="#ffffff" filter="url(#glow)" letter-spacing="4">
    OF CRIMEA
  </text>

  
  <rect x="90" y="420" width="200" height="40" fill="#CC0000" />
  <text x="104" y="450" font-family="monospace" font-size="28" font-weight="bold" fill="#ffffff" letter-spacing="2">2014</text>

  
  <rect x="670" y="510" width="130" height="22" fill="#000000" opacity="0.7" />
  <text x="674" y="527" font-family="monospace" font-size="14" fill="#ffffff" letter-spacing="1">SEVASTOPOL</text>

  
  <rect x="730" y="475" width="90" height="22" fill="#000000" opacity="0.7" />
  <text x="734" y="492" font-family="monospace" font-size="14" fill="#FFD500" letter-spacing="1">CRIMEA</text>

  
  <text x="400" y="690" font-family="monospace" font-size="28" fill="#4af" opacity="0.6" letter-spacing="4">BLACK SEA</text>

  
  <rect x="640" y="432" width="8" height="8" fill="#ff4444" />
  <rect x="960" y="480" width="8" height="8" fill="#ff4444" />

  
  <rect x="90" y="620" width="420" height="80" fill="#1a1a3a" stroke="#ffcc00" stroke-width="2" />
  <text x="106" y="648" font-family="monospace" font-size="14" fill="#ffcc00" letter-spacing="1">BUDAPEST MEMORANDUM 1994</text>
  <text x="106" y="670" font-family="monospace" font-size="12" fill="#aaaaff">Ukraine gave up nuclear weapons</text>
  <text x="106" y="688" font-family="monospace" font-size="12" fill="#ff6666">for security guarantees... BREACHED</text>

  
  <rect width="1536" height="1024" fill="url(#scanlines)" opacity="0.4" />

  
  <rect width="1536" height="1024" fill="url(#crt)" opacity="0.15" />

  
  <pattern id="pixgrid" x="0" y="0" width="16" height="16" patternUnits="userSpaceOnUse">
    <rect x="0" y="0" width="1" height="1" fill="#ffffff" opacity="0.04" />
  </pattern>
  <rect width="1536" height="1024" fill="url(#pixgrid)" />

</svg>